<?xml version="1.0" standalone="no"?>
<!DOCTYPE svg PUBLIC "-//W3C//DTD SVG 20010904//EN"
 "http://www.w3.org/TR/2001/REC-SVG-20010904/DTD/svg10.dtd">
<svg version="1.0" xmlns="http://www.w3.org/2000/svg"
 width="120.000000pt" height="120.000000pt" viewBox="0 0 120.000000 120.000000"
 preserveAspectRatio="xMidYMid meet">
<metadata>
Created by potrace 1.11, written by Peter Selinger 2001-2013
</metadata>
<g transform="translate(0.000000,120.000000) scale(0.100000,-0.100000)"
fill="#000000" stroke="none">
<path d="M535 1159 c-97 -14 -199 -53 -259 -99 -216 -167 -292 -415 -200 -658
58 -155 171 -268 326 -326 157 -59 324 -48 471 34 208 115 328 371 278 593 -5
20 -7 37 -6 37 11 0 -60 149 -89 188 -92 125 -233 210 -374 227 -26 3 -56 7
-67 9 -11 2 -47 -1 -80 -5z"/>
</g>
</svg>
